<svg width="2732" height="3253" xmlns="http://www.w3.org/2000/svg" xmlns:svg="http://www.w3.org/2000/svg" preserveAspectRatio="xMidYMid meet">
 <metadata>Created by potrace 1.10, written by Peter Selinger 2001-2011</metadata>
 <g class="layer">
  <title>Layer 1</title>
  <g id="svg_1">
   <path d="m30,1475.999999c0,-777.348065 599.89228,-1406.999998 1340.500034,-1406.999998c740.607753,0 1340.500034,629.651933 1340.500034,1406.999998c0,777.348065 -599.89228,1406.999998 -1340.500034,1406.999998c-740.607753,0 -1340.500034,-629.651933 -1340.500034,-1406.999998z" fill="#ffffaa" id="svg_22" stroke="#000000" stroke-dasharray="null" stroke-linecap="null" stroke-linejoin="null" stroke-width="25"/>
   <path d="m975.199309,465.771303c-18.590877,12.880987 -20.547811,23.780284 -20.547811,106.020431c0,141.690857 -2.935402,149.617618 -63.600368,174.388747c-117.416063,48.551413 -212.327381,126.82818 -363.011328,301.216927l-39.138688,45.578877l-113.502194,0c-94.911318,0 -114.480662,2.972535 -127.200735,16.844368c-13.698541,16.844368 -29.354016,132.773251 -51.858761,381.475384l-5.870803,66.386625l81.212777,82.240148c45.987958,47.560567 95.889785,109.983812 115.459129,145.654238c18.590877,34.67958 54.794163,94.13029 80.23431,132.773251c51.858761,81.249303 288.647822,345.804959 356.162058,398.319752c45.009491,33.688735 47.944892,34.67958 136.00694,34.67958c114.480662,0 125.243801,-6.935916 127.200735,-85.212683l0.978467,-58.459864l155.576284,-1.98169c151.662415,-0.990845 397.25768,-17.835213 443.245638,-29.725355c20.547811,-4.954226 21.526278,-2.972535 21.526278,68.368316c0,101.066206 6.84927,107.011277 129.157669,107.011277l92.954383,0l46.966425,-41.615496c59.686499,-53.505638 148.727013,-166.461986 191.77957,-242.757063c17.612409,-31.707045 45.987958,-75.304232 63.600368,-97.102825c41.095622,-52.514793 90.018982,-152.590154 115.459129,-235.821147l21.526278,-68.368316l50.880294,-16.844368c91.975916,-31.707045 150.683948,-113.947193 152.640882,-213.031708c1.956934,-83.230993 -47.944892,-93.139444 -78.277375,-16.844368c-17.612409,44.588032 -46.966425,62.423245 -79.255843,47.560567c-19.569344,-8.917606 -22.504745,-17.835213 -22.504745,-61.4324c0,-204.114102 -147.748546,-445.880319 -358.118992,-582.61695c-191.77957,-124.846489 -373.774468,-175.379592 -635.025208,-175.379592c-136.985407,0 -138.942341,0 -149.70548,-23.780284c-30.332483,-67.37747 -118.39453,-135.745786 -206.456578,-159.52607c-41.095622,-10.899297 -51.858761,-10.899297 -68.492703,1.98169l-0.000002,0.000001zm136.00694,54.496483c18.590877,10.899297 62.6219,50.533103 97.846719,86.203528l63.600368,65.39578l81.212777,-0.990845c44.031024,-0.990845 83.169711,2.972535 86.105113,6.935916c2.935402,4.954226 -6.84927,8.917606 -21.526278,8.917606c-31.31095,0 -72.406572,34.67958 -72.406572,60.441554c0,9.908452 8.806205,26.752819 20.547811,36.661271c16.633942,15.853522 39.138688,19.816903 134.050005,23.780284c115.459129,4.954226 171.231759,19.816903 308.217166,81.249303c36.203286,15.853522 37.181753,15.853522 60.664966,-7.926761c13.698541,-13.871832 24.46168,-31.707045 24.46168,-41.615496c0,-25.761974 -52.837228,-68.368316 -114.480662,-93.139444c-80.23431,-31.707045 -84.148179,-40.624651 -10.763139,-19.816903c228.961323,64.404935 443.245638,240.775372 540.11389,445.880319c27.397081,58.459864 48.92336,132.773251 59.686499,212.040863c8.806205,65.39578 23.483213,94.13029 50.880294,101.066206c36.203286,9.908452 64.578835,-2.972535 93.93285,-42.606342l26.418614,-35.670426l0,32.69789c0,84.221838 -48.92336,158.535225 -117.416063,179.342973c-55.77263,16.844368 -67.514236,31.707045 -105.674457,133.764096c-20.547811,54.496483 -58.708032,130.79156 -85.126646,171.416212c-27.397081,40.624651 -53.815696,81.249303 -58.708032,89.176064c-73.385039,116.919728 -115.459129,175.379592 -168.296357,230.866921c-71.428105,74.313387 -111.54526,90.166909 -205.47811,80.258457c-45.987958,-4.954226 -51.858761,-7.926761 -60.664966,-35.670426c-5.870803,-15.853522 -10.763139,-43.597187 -10.763139,-61.4324c0,-16.844368 -5.870803,-39.633806 -13.698541,-49.542258c-15.655475,-21.798593 -24.46168,-21.798593 -235.810593,-5.945071c-75.341974,5.945071 -189.822635,10.899297 -254.40147,10.899297c-64.578835,0 -122.308399,3.963381 -129.157669,7.926761c-14.677008,8.917606 -32.289417,55.487329 -32.289417,85.212683c0,35.670426 -22.504745,46.569722 -99.803654,48.551413c-90.018982,1.98169 -107.631391,-7.926761 -209.391979,-113.947193c-198.62884,-205.104947 -252.444536,-273.473262 -336.592714,-423.090881c-23.483213,-40.624651 -75.341974,-108.992967 -116.437596,-152.590154l-74.363507,-78.276767l0,-56.478174c0,-108.002122 25.440147,-331.933126 40.117155,-354.722565c12.720074,-20.807748 21.526278,-22.789439 94.911318,-22.789439c120.351465,0 143.834677,-9.908452 209.391979,-86.203528c125.243801,-145.654238 178.081029,-190.242269 313.109502,-259.60143c34.246352,-16.844368 67.514236,-40.624651 75.341974,-53.505638c7.827738,-11.890142 16.633942,-64.404935 20.547811,-120.883109c2.935402,-54.496483 8.806205,-102.057051 11.741606,-107.011277c7.827738,-13.871832 81.212777,0.990845 120.351465,24.771129l-0.000001,0.000001zm582.18798,225.912695c99.803654,31.707045 182.973365,76.295077 179.059496,96.11198c-6.84927,34.67958 -33.267885,37.652116 -83.169711,10.899297c-81.212777,-44.588032 -181.994898,-69.359161 -301.367895,-72.331696c-112.523727,-2.972535 -133.071538,-10.899297 -118.39453,-49.542258c5.870803,-15.853522 17.612409,-16.844368 131.114604,-11.890142c90.018982,2.972535 142.85621,10.899297 192.758037,26.752819l-0.000001,0z" fill="#000000" id="svg_2" stroke="#000000" stroke-linecap="square" stroke-linejoin="bevel" stroke-width="4"/>
   <path d="m734.49638,1001.818531c-10.763139,1.98169 -29.354016,12.880987 -41.095622,23.780284c-71.428105,67.37747 -20.547811,176.370437 76.320441,163.48945c40.117155,-4.954226 60.664966,-21.798593 78.277375,-65.39578c10.763139,-26.752819 -2.935402,-81.249303 -25.440147,-100.075361c-17.612409,-14.862677 -64.578835,-26.752819 -88.062047,-21.798593zm70.449638,43.597187c32.289417,29.725355 30.332483,79.267612 -2.935402,106.020431c-29.354016,23.780284 -42.074089,25.761974 -76.320441,9.908452c-32.289417,-14.862677 -48.92336,-56.478174 -36.203286,-90.166909c18.590877,-49.542258 76.320441,-62.423245 115.459129,-25.761974z" fill="#000000" id="svg_3" stroke="#000000" stroke-linecap="square" stroke-linejoin="bevel" stroke-width="7"/>
   <path d="m1337.23217,1140.536852c-21.526278,21.798593 -52.837228,48.551413 -69.471171,57.469019c-40.117155,24.771129 -78.277375,104.038741 -78.277375,163.48945c0,61.4324 9.784672,85.212683 52.837228,129.800715c35.224819,36.661271 35.224819,37.652116 12.720074,37.652116c-12.720074,0 -36.203286,9.908452 -50.880294,21.798593c-23.483213,17.835213 -26.418614,25.761974 -21.526278,59.450709c6.84927,52.514793 46.966425,110.974657 94.911318,138.718321c25.440147,14.862677 43.052556,33.688735 48.92336,54.496483c14.677008,43.597187 33.267885,56.478174 80.23431,54.496483c45.009491,-1.98169 71.428105,-20.807748 80.23431,-56.478174c3.913869,-13.871832 23.483213,-34.67958 47.944892,-48.551413c153.619349,-91.157754 163.404021,-250.683824 19.569344,-334.905662l-45.009491,-25.761974l47.944892,-6.935916c56.751097,-8.917606 82.191244,-27.743664 82.191244,-64.404935c0,-38.642961 -46.966425,-104.038741 -91.975916,-129.800715c-22.504745,-12.880987 -51.858761,-35.670426 -66.535769,-51.523948c-18.590877,-18.826058 -40.117155,-30.7162 -65.557302,-33.688735c-36.203286,-4.954226 -43.052556,-1.98169 -78.277375,34.67958l-0.000001,0.000003zm122.308399,20.807748c4.892336,20.807748 12.720074,29.725355 32.289417,33.688735c41.095622,8.917606 90.997449,48.551413 111.54526,90.166909c27.397081,53.505638 15.655475,69.359161 -55.77263,73.322541c-50.880294,1.98169 -55.77263,0 -64.578835,-22.789439c-17.612409,-46.569722 -84.148179,-57.469019 -121.329932,-18.826058c-38.160221,37.652116 -3.913869,90.166909 62.6219,97.102825c146.770079,15.853522 216.24125,79.267612 202.542709,184.297199c-6.84927,54.496483 -43.052556,97.102825 -106.652924,126.82818c-52.837228,25.761974 -55.77263,28.734509 -58.708032,66.386625l-2.935402,39.633806l-48.92336,0l-48.92336,0l-2.935402,-41.615496c-2.935402,-34.67958 -6.84927,-41.615496 -29.354016,-47.560567c-65.557302,-15.853522 -119.372997,-84.221838 -119.372997,-148.626773l0,-35.670426l60.664966,2.972535c57.729564,2.972535 60.664966,3.963381 67.514236,31.707045c9.784672,36.661271 23.483213,45.578877 73.385039,45.578877c53.815696,0 90.997449,-36.661271 74.363507,-73.322541c-10.763139,-25.761974 -58.708032,-44.588032 -114.480662,-46.569722c-47.944892,-0.990845 -88.062047,-21.798593 -123.286866,-62.423245c-28.375549,-32.69789 -32.289417,-44.588032 -32.289417,-89.176064c1.956934,-77.285922 28.375549,-123.855644 89.040515,-154.571844c42.074089,-20.807748 50.880294,-29.725355 50.880294,-52.514793c0.978467,-25.761974 2.935402,-26.752819 49.901827,-26.752819c46.966425,0 49.901827,1.98169 54.794163,28.734509l0.000002,0.000001zm12.720074,202.132411l33.267885,28.734509l-45.009491,-5.945071c-75.341974,-10.899297 -91.975916,-24.771129 -64.578835,-52.514793c14.677008,-14.862677 35.224819,-6.935916 76.320441,29.725355zm-26.418614,203.123256c17.612409,17.835213 -2.935402,41.615496 -35.224819,41.615496c-24.46168,0 -34.246352,-5.945071 -43.052556,-24.771129c-6.84927,-13.871832 -11.741606,-28.734509 -11.741606,-31.707045c0,-8.917606 79.255843,3.963381 90.018982,14.862677l-0.000001,0.000001z" fill="#000000" id="svg_4" stroke="#000000" stroke-linecap="square" stroke-linejoin="bevel" stroke-width="7"/>
   <path d="m558.372277,1020.211136l-229.939787,13.314482l229.939787,-13.314482z" fill="#92aa77" id="svg_14" stroke="#ffffaa" stroke-width="0"/>
   <polygon fill="none" id="svg_21" points="1116.0985107421875,1476 1116.0985107421875,1476 1116.0985107421875,1476 1116.0985107421875,1476 1116.0985107421875,1476 1116.0985107421875,1476 " stroke="#ffffaa" stroke-width="0"/>
  </g>
 </g>
</svg>